<svg width="179" height="75" viewBox="0 0 179 75" fill="none" xmlns="http://www.w3.org/2000/svg">
<path d="M135.299 35.4331C133.823 36.7126 132.248 37.7953 130.477 38.4843C129.984 38.6811 129.591 38.878 129.099 38.9764C128.016 39.3701 126.835 39.4685 125.752 39.5669C123.685 39.7638 121.717 38.878 120.339 37.3032C119.158 35.6299 118.862 33.4646 119.551 31.4961H124.571C127.524 31.4961 130.378 30.5118 132.642 28.6417C134.217 27.3622 135.496 25.689 136.284 23.9173C137.071 22.3425 137.366 20.5709 137.268 18.8976C137.169 17.4213 136.48 15.9449 135.398 14.8622C134.118 13.6811 132.347 13.0906 130.575 13.189C126.638 13.189 122.701 14.5669 119.65 17.126C116.008 20.1772 113.351 24.1142 111.776 28.5433C111.185 30.0197 110.791 31.5945 110.693 33.2677L110.988 32.185C110.201 33.7598 109.217 35.1378 107.937 36.3189C107.051 37.0079 106.067 37.5 104.984 37.6969C104.295 37.8937 103.508 37.7953 102.917 37.3032C102.425 36.9095 102.425 36.2205 102.819 35.2362C103.705 33.4646 104 31.3976 103.606 29.4291C103.114 27.8543 101.736 26.8701 100.162 26.8701C102.032 26.5748 103.803 25.8858 105.477 25C107.543 23.7205 109.118 21.752 110.102 19.4882C110.89 18.2087 110.988 16.6339 110.496 15.2559C110.004 14.0748 108.823 13.3858 107.543 13.4843C105.969 13.4843 104.394 13.9764 103.213 15.0591C101.835 16.2402 100.851 17.815 100.26 19.4882C99.8663 20.374 99.6694 21.3583 99.6694 22.4409C99.6694 23.2283 99.9647 24.0157 100.457 24.6063L92.5828 27.3622L99.4726 10.4331C100.851 6.88976 101.244 4.33071 100.457 2.75591C99.7678 0.787402 97.8978 0 94.945 0C94.4529 0 93.9608 0 93.4686 0.0984252C92.9765 0.0984252 92.5828 0.19685 92.0907 0.295276C91.5985 0.393701 91.2049 0.492126 90.8111 0.492126C90.0238 0.984252 89.4332 1.77165 89.2363 2.75591C89.1379 3.14961 89.1379 3.44488 89.2363 3.83858H90.0238C91.2048 3.83858 91.9923 4.13386 92.2875 4.82283C92.5828 5.61024 92.4844 6.59449 92.0907 7.38189C91.8938 7.87402 91.5001 8.75984 91.008 10.0394C90.5159 11.3189 89.8269 12.8937 89.1379 14.6654C88.4489 16.437 87.6615 18.4055 86.7757 20.374C85.9883 22.4409 85.2009 24.311 84.4135 26.0827C83.7245 27.8543 83.0356 29.5276 82.445 30.9055C82.1497 31.6929 81.8545 32.3819 81.6576 32.874L80.9686 34.4488C80.3781 35.0394 79.6891 35.5315 79.0001 36.0236C78.1143 36.7126 77.1301 37.2047 76.0474 37.4016C75.3584 37.5984 74.571 37.4016 73.9804 37.0079C73.4883 36.6142 73.3899 35.9252 73.7836 34.9409C73.882 34.6457 74.1773 33.9567 74.571 32.874C75.0631 31.7913 75.5552 30.5118 76.1458 29.1339C76.7363 27.6575 77.3269 26.1811 78.0159 24.5079C78.7048 22.8346 79.2954 21.3583 79.9844 19.8819C80.5749 18.4055 81.1655 17.126 81.6576 15.9449C82.1497 14.7638 82.445 13.9764 82.5434 13.5827H73.9804C73.882 13.7795 73.7836 13.9764 73.7836 14.1732C73.6852 14.4685 73.5867 14.8622 73.3899 15.1575C72.3072 13.6811 70.634 12.8937 68.7639 12.9921C65.0237 13.0906 61.382 14.3701 58.4293 16.7323C54.6891 19.7835 51.8348 23.8189 50.1615 28.3465C49.4726 29.8228 48.9804 31.3976 48.6852 32.9724L48.2915 33.6614C47.6025 34.5472 46.8151 35.4331 45.9293 36.1221C45.1418 36.811 44.1576 37.3032 43.0749 37.5984C42.3859 37.7953 41.5985 37.6969 41.008 37.2047C40.5159 36.811 40.4174 36.0236 40.8111 35.0394C42.3859 31.0039 43.8623 27.3622 45.2403 24.1142C45.8308 22.7362 46.4214 21.2598 47.0119 19.8819C47.6025 18.5039 48.193 17.126 48.6852 15.9449C49.1773 14.7638 49.571 13.6811 49.9647 12.7953C50.3584 11.9094 50.5552 11.2205 50.7521 10.8268C52.2285 7.38189 52.5237 4.82283 51.8348 3.24803C51.1458 1.67323 49.1773 0.787402 46.2245 0.787402C45.7324 0.787402 45.1419 0.787402 44.6497 0.885827C44.1576 0.885827 43.7639 0.984252 43.3702 1.08268C42.8781 1.1811 42.4844 1.27953 42.0907 1.27953C41.008 1.9685 40.319 3.24803 40.4174 4.62598H41.2048C42.3859 4.62598 43.1733 4.92126 43.4686 5.61024C43.7639 6.39764 43.6655 7.38189 43.2718 8.16929C43.0749 8.56299 42.7796 9.35039 42.1891 10.6299C41.5985 11.9094 41.008 13.4843 40.319 15.2559C39.63 17.0276 38.8426 18.8976 37.9568 20.9646C37.2678 22.5394 36.6773 24.1142 36.0867 25.5906L35.7915 26.1811C35.2009 26.7717 34.6104 27.3622 34.0198 27.9528C32.1497 29.7244 29.9844 30.9055 27.5237 31.5945C26.1458 31.9882 24.6694 32.185 23.2915 32.2835C23.0946 28.6417 21.5198 26.6732 18.2718 26.4764L22.5041 16.3386C22.9962 14.8622 23.6852 13.3858 24.3741 12.0079C25.0631 10.6299 25.9489 9.35039 26.8348 8.16929C27.6222 7.08661 28.6064 6.20079 29.6891 5.41339C30.5749 4.72441 31.6576 4.42913 32.7403 4.33071C33.6261 4.23228 34.4135 4.62598 34.9056 5.31496C35.2993 6.00394 35.4962 6.88976 35.3978 7.77559C35.1025 7.67717 34.7088 7.67717 34.4135 7.57874C32.8387 7.57874 31.3623 8.16929 30.1812 9.15354C28.8033 10.3346 27.7206 11.811 27.13 13.5827C26.5395 14.9606 26.4411 16.437 26.8348 17.815C27.2285 18.9961 28.4096 19.7835 29.6891 19.5866C30.1812 19.5866 30.6733 19.4882 31.1655 19.2913C31.8544 18.9961 32.445 18.7008 33.0355 18.2087C33.8229 17.6181 34.5119 16.9291 35.1025 16.1417C35.8899 15.1575 36.5789 14.0748 37.1694 12.8937C37.8584 11.5157 38.3505 10.0394 38.6458 8.56299C38.8426 7.28346 38.8426 5.90551 38.4489 4.62598C38.0552 3.64173 37.3663 2.65748 36.382 1.87008C35.2009 1.08268 33.823 0.688976 32.445 0.787402C28.508 0.787402 24.6694 2.16535 21.5198 4.72441C17.8781 7.77559 15.2206 11.811 13.5474 16.2402L1.14578 47.0472C-0.232174 50.2953 -0.330599 52.6575 0.653653 54.4291C1.73633 56.1024 3.80326 57.0866 5.87019 56.8898C8.82295 56.6929 11.4804 55.315 13.4489 53.1496C16.5001 50 18.8623 46.2598 20.634 42.2244C21.1261 41.2402 21.5198 40.2559 21.9135 39.1732C22.2088 38.189 22.5041 37.2047 22.7993 36.3189C25.9489 36.0236 29.0985 35.1378 31.8544 33.563C32.3466 33.2677 32.7403 32.9724 33.134 32.6772C32.9371 33.2677 32.7403 33.6614 32.6418 33.9567C32.0513 35.3346 31.6576 36.7126 31.5592 38.189C31.4607 39.2717 31.6576 40.3543 32.1497 41.3386C32.6418 42.126 33.3308 42.815 34.2167 43.2087C35.2009 43.6024 36.382 43.8976 37.4647 43.7992C38.7442 43.7992 40.0237 43.6024 41.2048 43.1102C42.4844 42.6181 43.6655 42.0276 44.7481 41.2402C45.8308 40.4528 46.9135 39.5669 47.7993 38.4843C48.0946 38.189 48.2915 37.8937 48.5867 37.5C48.6852 38.0906 48.7836 38.6811 48.9804 39.2717C49.3741 40.5512 50.26 41.7323 51.3426 42.6181C52.6222 43.5039 54.0985 43.8976 55.6733 43.7992C57.2481 43.7992 58.7245 43.4055 60.1025 42.7165C61.7757 41.9291 63.2521 40.9449 64.63 39.7638C64.8269 41.0433 65.5159 42.126 66.5001 42.815C67.6812 43.5039 69.0592 43.8976 70.4371 43.7992C71.7167 43.7992 72.9962 43.6024 74.1773 43.1102C76.3426 42.3228 78.3111 41.0433 79.8859 39.4685C79.8859 40.1575 79.9844 40.8465 80.2796 41.437C80.9686 43.0118 82.8387 43.7992 85.8899 43.7992C86.8741 43.7992 87.8584 43.7008 88.7442 43.6024C89.2363 43.5039 89.6301 43.4055 90.0238 43.3071C90.9096 42.9134 91.5986 42.2244 91.7954 41.2402C91.8938 40.8465 91.7954 40.3543 91.5985 39.9606H90.9096C89.7285 39.9606 88.9411 39.6654 88.6458 39.0748C88.3505 38.189 88.3505 37.3032 88.8427 36.5158L91.1064 31.1024C91.697 30.7087 92.2875 30.4134 92.9765 30.4134C93.4686 30.315 93.9608 30.5118 94.3545 30.8071C94.7482 31.2008 94.945 31.5945 94.945 32.0866C95.0434 32.7756 94.8466 33.4646 94.5513 34.0551C93.2718 37.1063 93.0749 39.5669 94.0592 41.2402C95.1419 43.0118 97.2088 44.0945 99.2757 43.8976C100.555 43.8976 101.835 43.7008 103.016 43.2087C104.295 42.7165 105.477 42.126 106.559 41.3386C107.74 40.5512 108.725 39.6654 109.61 38.5827C110.102 38.0906 110.496 37.5 110.791 36.9095C110.988 37.7953 111.382 38.6811 111.776 39.4685C112.662 40.8465 113.843 42.0276 115.319 42.815C117.091 43.7008 118.961 44.0945 120.831 43.9961C124.669 44.0945 128.41 43.3071 131.854 41.6339C133.134 41.0433 134.414 40.1575 135.496 39.1732C135.299 42.3228 137.366 43.8976 141.5 43.8976C142.484 43.8976 143.469 43.7992 144.354 43.7008C144.847 43.6024 145.24 43.5039 145.634 43.4055C146.52 43.0118 147.209 42.3228 147.406 41.3386C147.504 40.9449 147.406 40.4528 147.209 40.0591H146.421C145.24 40.0591 144.453 39.7638 144.158 39.1732C143.862 38.2874 143.961 37.4016 144.354 36.6142L146.717 30.9055C148.095 30.2165 149.079 30.2165 149.768 30.9055C150.457 31.7913 150.555 33.0709 149.965 34.0551C148.685 37.1063 148.488 39.5669 149.473 41.2402C150.555 43.1102 152.622 44.0945 154.689 43.8976C155.969 43.8976 157.248 43.7008 158.429 43.2087C159.709 42.7165 160.89 42.126 161.973 41.3386C163.055 40.5512 164.138 39.6654 165.024 38.5827C165.713 37.5984 166.205 36.6142 166.599 35.4331L167.091 34.9409C167.189 34.8425 167.288 34.7441 167.484 34.6457C168.961 33.0709 171.421 32.874 172.996 34.3504C173.095 34.4488 173.193 34.5472 173.291 34.6457C174.276 35.4331 175.063 36.6142 175.457 37.8937C175.851 39.1732 175.851 40.6496 175.457 41.9291C174.965 43.5039 174.276 44.9803 173.193 46.2598C171.914 47.8346 170.437 49.2126 168.764 50.1969C166.697 51.4764 164.433 52.4606 162.071 53.1496C159.118 54.0354 156.165 54.4291 153.114 54.5276C148.095 54.8228 143.075 54.7244 138.154 54.4291C133.429 54.1339 128.705 53.7402 123.98 53.1496C119.354 52.5591 114.63 51.9685 109.906 51.2795C105.181 50.5906 100.26 50 95.2403 49.4095C90.1222 48.8189 84.8072 48.4252 79.2954 48.1299C73.6852 47.8347 67.6812 47.7362 61.2836 48.0315C56.2639 48.1299 51.3426 48.8189 46.5198 50C42.2875 50.9843 38.1537 52.5591 34.3151 54.4291C30.7718 56.2008 27.5237 58.3661 24.4726 60.8268C21.7166 63.189 19.1576 65.8465 16.8938 68.7992C19.945 67.7165 23.193 67.126 26.5395 66.9291C29.197 66.8307 31.756 67.126 34.3151 67.9134C36.382 68.5039 38.2521 69.4882 39.9253 70.8661C41.3033 71.9488 42.3859 73.4252 43.0749 75C46.0277 71.8504 49.6694 69.3898 53.6064 67.6181C58.0356 65.6496 62.6615 64.1732 67.3859 63.2874C72.7009 62.2047 78.1143 61.5158 83.5277 61.2205C89.2364 60.8268 95.1419 60.7284 101.146 60.7284C107.15 60.7284 113.252 60.9252 119.354 61.1221C125.457 61.4173 131.461 61.6142 137.268 61.811C143.469 62.1063 149.571 61.7126 155.673 60.6299C160.102 59.8425 164.335 58.3661 168.272 56.2992C171.225 54.8228 173.784 52.7559 175.752 50.0984C177.327 48.1299 178.311 45.7677 178.803 43.2087C179.197 41.0433 178.902 38.878 178.114 36.9095C177.327 35.0394 176.047 33.4646 174.374 32.2835C173.587 31.7913 172.701 31.3976 171.815 31.2008C170.929 31.0039 170.043 31.0039 169.158 31.2008C168.173 31.3976 167.288 31.8898 166.599 32.5787C166.5 32.6772 166.402 32.7756 166.402 32.7756L163.646 35.8268C162.76 36.5158 161.776 37.0079 160.693 37.2047C160.004 37.4016 159.217 37.2047 158.626 36.811C158.134 36.4173 158.036 35.7283 158.429 34.7441C159.217 33.0709 159.61 31.2008 159.512 29.2323C159.414 27.9528 158.725 26.6732 157.642 25.8858C159.217 25.3937 160.693 24.7047 161.973 23.7205C163.646 22.4409 164.925 20.7677 165.713 18.8976C166.5 17.6181 166.599 16.0433 166.106 14.6654C165.614 13.4843 164.335 12.7953 163.055 12.8937C161.48 12.8937 160.004 13.4843 158.823 14.4685C157.445 15.6496 156.461 17.2244 155.87 18.8976C155.477 19.7835 155.28 20.7677 155.28 21.8504C155.28 22.6378 155.575 23.4252 156.067 24.0157L151.835 25.4921C151.638 25 151.54 24.4095 151.736 23.8189C152.032 22.6378 152.425 21.5551 153.016 20.5709C154.099 18.8976 154.295 16.7323 153.41 14.8622C152.524 13.3858 150.654 12.5984 147.701 12.5984C147.209 12.5984 146.618 12.5984 146.126 12.6969C145.634 12.6969 145.24 12.7953 144.847 12.8937C144.354 12.9921 143.961 13.0906 143.567 13.189C142.681 13.7795 142.091 14.6654 141.894 15.748C141.894 16.0433 141.894 16.2402 141.992 16.5354H142.681C143.862 16.5354 144.551 16.8307 144.847 17.5197C145.142 18.3071 145.043 19.2913 144.65 20.0787C143.567 23.5236 143.764 26.1811 145.142 27.8543C142.977 27.8543 140.811 28.6417 139.138 30.0197C137.563 31.8898 137.662 33.2677 135.299 35.4331ZM122.504 24.2126C123.291 22.8346 123.98 21.6535 124.669 20.5709C125.26 19.5866 126.047 18.7008 126.835 17.815C127.327 17.2244 127.917 16.7323 128.705 16.437C129.492 16.1417 129.984 16.1417 130.378 16.437C130.673 16.9291 130.87 17.4213 130.772 18.0118C130.673 18.8976 130.477 19.7835 130.181 20.6693C129.788 21.752 129.295 22.9331 128.705 23.9173C128.114 25.1969 127.327 26.2795 126.343 27.2638C125.457 27.9528 124.473 28.4449 123.291 28.4449L120.536 28.3465C121.028 26.9685 121.717 25.5906 122.504 24.2126ZM19.1576 36.2205C18.567 38.0906 17.8781 39.8622 16.9922 41.5354C16.008 43.7008 14.8269 45.6693 13.3505 47.6378C12.5631 48.7205 11.6773 49.6063 10.5946 50.2953C9.8072 50.689 9.31507 50.689 9.11822 50.1969C8.92137 49.5079 8.92137 48.7205 9.31507 48.0315L16.7954 29.8228C17.4844 29.7244 18.1733 29.9213 18.7639 30.4134C19.3544 31.0039 19.6497 31.6929 19.6497 32.4803C19.6497 33.7598 19.4529 35.0394 19.1576 36.2205ZM65.6143 33.9567C65.319 34.6457 65.1222 35.2362 64.9253 36.0236C64.0395 36.9095 62.9568 37.5984 61.7757 38.189C60.8899 38.6811 59.9056 38.9764 58.9214 38.9764C58.134 39.0748 57.445 38.6811 57.0513 38.0906C56.6576 37.4016 56.4608 36.6142 56.5592 35.7283C56.6576 34.5472 56.8545 33.3661 57.3466 32.2835C57.8387 30.8071 58.4293 29.4291 59.2167 28.0512C60.1025 26.2795 60.9883 24.6063 61.9726 22.9331C62.76 21.752 63.5474 20.5709 64.5316 19.5866C65.2206 18.7992 66.1064 18.2087 67.0907 17.7165C67.9765 17.3228 68.8623 17.126 69.8466 17.126C70.7324 17.0276 71.6182 17.5197 72.1104 18.2087L65.6143 33.9567Z" fill="#03BD66"/>
</svg>
